<?xml version="1.0" standalone="no"?>
<!DOCTYPE svg PUBLIC "-//W3C//DTD SVG 20010904//EN"
 "http://www.w3.org/TR/2001/REC-SVG-20010904/DTD/svg10.dtd">
<svg version="1.0" xmlns="http://www.w3.org/2000/svg"
 width="202.000000pt" height="199.000000pt" viewBox="0 0 202.000000 199.000000"
 preserveAspectRatio="xMidYMid meet">
<g transform="translate(0.000000,199.000000) scale(0.100000,-0.100000)"
fill="#000000" stroke="none">
<path d="M951 1514 c-26 -22 -31 -33 -31 -69 0 -38 5 -48 35 -72 20 -16 35
-37 35 -49 0 -19 -7 -22 -52 -26 -39 -4 -56 -11 -66 -27 -11 -16 -25 -21 -62
-21 -104 0 -233 -62 -303 -146 -15 -17 -39 -55 -54 -85 -23 -46 -28 -69 -31
-155 -5 -123 11 -186 65 -264 48 -69 121 -124 197 -150 54 -18 86 -20 326 -20
296 0 332 6 424 69 189 130 228 427 79 605 -70 84 -199 146 -303 146 -37 0
-51 5 -62 21 -10 16 -27 23 -66 27 -44 4 -52 8 -52 25 0 11 16 34 36 51 30 26
36 38 36 71 0 31 -6 45 -31 67 -40 36 -80 36 -120 2z m339 -360 c154 -46 237
-169 228 -338 -7 -126 -64 -216 -173 -274 l-50 -27 -285 0 c-280 0 -286 0
-330 24 -112 58 -171 150 -178 277 -9 167 73 291 224 337 73 23 489 23 564 1z"/>
<path d="M671 1033 c-54 -27 -83 -82 -89 -166 -7 -122 24 -192 102 -228 37
-17 70 -19 326 -19 256 0 289 2 326 19 78 36 109 106 102 228 -4 56 -11 81
-31 111 -46 70 -56 72 -399 72 -261 0 -308 -3 -337 -17z m154 -128 c44 -43 31
-112 -25 -135 -55 -23 -110 15 -110 75 0 75 83 112 135 60z m488 -6 c19 -23
22 -70 7 -98 -16 -31 -65 -46 -100 -31 -57 23 -69 92 -24 137 21 21 32 24 62
19 20 -3 45 -15 55 -27z"/>
</g>
</svg>